<svg width="171" height="48" viewBox="0 0 171 48" fill="none" xmlns="http://www.w3.org/2000/svg">
<path d="M14.1485 5.79409V24.4787C14.1485 27.1189 14.7864 28.8376 16.0622 29.635C16.0799 29.7235 16.0887 29.892 16.0887 30.1399V30.6184C16.0887 33.1522 15.442 35.0748 14.1485 36.3858C12.8728 37.697 11.0566 38.3527 8.69995 38.3527C6.34332 38.3527 4.47397 37.697 3.09191 36.3858C1.44405 34.8265 0.620117 32.4699 0.620117 29.3161V1.70102C2.48061 0.567007 4.60687 0 6.99894 0C9.40869 0 11.1983 0.513848 12.3678 1.54155C13.5549 2.55151 14.1485 3.96905 14.1485 5.79409ZM30.7335 23.0701V27.7212C30.8576 27.8453 31.0612 27.9073 31.3448 27.9073C31.6284 27.9073 31.8319 27.8099 31.956 27.615C32.0802 27.4202 32.1422 27.0835 32.1422 26.605V22.8043C32.1422 21.1032 32.0712 19.9781 31.9294 19.4288C31.7878 18.8618 31.5219 18.5783 31.1322 18.5783C30.884 18.5783 30.6714 18.6669 30.4943 18.8441C30.6537 20.5982 30.7335 22.0069 30.7335 23.0701ZM20.7931 34.8442C17.8872 32.0448 16.4343 28.2527 16.4343 23.4687C16.4343 18.6669 17.7986 14.8839 20.5273 12.1198C23.2738 9.33787 26.8707 7.94695 31.3181 7.94695C35.7655 7.94695 39.3627 9.39105 42.1091 12.2792C44.8378 15.1674 46.2021 18.9327 46.2021 23.575C46.2021 28.1996 44.8819 31.8763 42.2419 34.605C39.6196 37.3337 36.0491 38.6981 31.5309 38.6981C27.0125 38.6981 23.4332 37.4134 20.7931 34.8442ZM61.5644 23.0701V27.7212C61.6885 27.8453 61.892 27.9073 62.1756 27.9073C62.4592 27.9073 62.6631 27.8099 62.7869 27.615C62.911 27.4202 62.9731 27.0835 62.9731 26.605V22.8043C62.9731 21.1032 62.902 19.9781 62.7605 19.4288C62.6187 18.8618 62.3528 18.5783 61.9631 18.5783C61.7149 18.5783 61.5023 18.6669 61.3251 18.8441C61.4846 20.5982 61.5644 22.0069 61.5644 23.0701ZM51.6242 34.8442C48.7183 32.0448 47.2652 28.2527 47.2652 23.4687C47.2652 18.6669 48.6296 14.8839 51.3583 12.1198C54.1047 9.33787 57.7016 7.94695 62.1492 7.94695C66.5966 7.94695 70.1936 9.39105 72.9399 12.2792C75.6686 15.1674 77.033 18.9327 77.033 23.575C77.033 28.1996 75.713 31.8763 73.0728 34.605C70.4505 37.3337 66.88 38.6981 62.3618 38.6981C57.8433 38.6981 54.2641 37.4134 51.6242 34.8442ZM91.7576 27.8807L90.4817 28.4389C90.4817 29.6261 90.7119 30.893 91.1727 32.2396C91.5624 33.5153 92.1029 34.6494 92.794 35.6417C91.0399 37.4491 88.6035 38.3527 85.485 38.3527C83.6953 38.3527 82.145 37.8832 80.8338 36.944C79.3099 35.8809 78.5479 34.4722 78.5479 32.7181V1.70102C79.3984 1.20489 80.4173 0.797352 81.6045 0.478412C82.8094 0.15947 84.0232 0 85.2458 0C87.2835 0 88.9668 0.398677 90.2955 1.19603C91.8016 2.13513 92.5547 3.48177 92.5547 5.23594V8.05326C92.5547 10.4099 92.1383 12.7133 91.3055 14.9636C91.146 15.194 90.8627 15.5306 90.455 15.9736C90.0476 16.3989 89.7199 16.7887 89.4717 17.1431C89.2414 17.4974 89.1263 17.8075 89.1263 18.0733C89.1263 18.3214 89.3388 18.5517 89.764 18.7644C91.146 17.4709 92.227 16.0622 93.0065 14.5384C93.8039 13.0146 94.5303 10.9946 95.186 8.47851C95.4165 8.44308 95.6821 8.39877 95.9834 8.34562C96.2847 8.29246 96.7809 8.21272 97.4719 8.10641C98.1806 7.98239 98.6768 7.92036 98.9601 7.92036C101.689 7.92036 103.815 8.54938 105.339 9.80743C106.863 11.0478 107.625 12.7576 107.625 14.9371C107.625 17.1165 106.934 18.9858 105.552 20.5451C104.276 21.9449 102.619 22.9992 100.581 23.7079C102.212 24.6647 104.267 25.3469 106.748 25.7545C107.704 27.4909 108.183 29.3425 108.183 31.3094C108.183 33.2583 107.563 34.8886 106.322 36.1999C104.94 37.635 103.027 38.3527 100.581 38.3527C98.1539 38.3527 96.1516 37.4224 94.5747 35.5619C93.0155 33.6837 92.0763 31.1232 91.7576 27.8807Z" fill="url(#paint0_linear_141_212)"/>
<path d="M14.1485 5.79409V24.4787C14.1485 27.1189 14.7864 28.8376 16.0622 29.635C16.0799 29.7235 16.0887 29.892 16.0887 30.1399V30.6184C16.0887 33.1522 15.442 35.0748 14.1485 36.3858C12.8728 37.697 11.0566 38.3527 8.69995 38.3527C6.34332 38.3527 4.47397 37.697 3.09191 36.3858C1.44405 34.8265 0.620117 32.4699 0.620117 29.3161V1.70102C2.48061 0.567007 4.60687 0 6.99894 0C9.40869 0 11.1983 0.513848 12.3678 1.54155C13.5549 2.55151 14.1485 3.96905 14.1485 5.79409ZM30.7335 23.0701V27.7212C30.8576 27.8453 31.0612 27.9073 31.3448 27.9073C31.6284 27.9073 31.8319 27.8099 31.956 27.615C32.0802 27.4202 32.1422 27.0835 32.1422 26.605V22.8043C32.1422 21.1032 32.0712 19.9781 31.9294 19.4288C31.7878 18.8618 31.5219 18.5783 31.1322 18.5783C30.884 18.5783 30.6714 18.6669 30.4943 18.8441C30.6537 20.5982 30.7335 22.0069 30.7335 23.0701ZM20.7931 34.8442C17.8872 32.0448 16.4343 28.2527 16.4343 23.4687C16.4343 18.6669 17.7986 14.8839 20.5273 12.1198C23.2738 9.33787 26.8707 7.94695 31.3181 7.94695C35.7655 7.94695 39.3627 9.39105 42.1091 12.2792C44.8378 15.1674 46.2021 18.9327 46.2021 23.575C46.2021 28.1996 44.8819 31.8763 42.2419 34.605C39.6196 37.3337 36.0491 38.6981 31.5309 38.6981C27.0125 38.6981 23.4332 37.4134 20.7931 34.8442ZM61.5644 23.0701V27.7212C61.6885 27.8453 61.892 27.9073 62.1756 27.9073C62.4592 27.9073 62.6631 27.8099 62.7869 27.615C62.911 27.4202 62.9731 27.0835 62.9731 26.605V22.8043C62.9731 21.1032 62.902 19.9781 62.7605 19.4288C62.6187 18.8618 62.3528 18.5783 61.9631 18.5783C61.7149 18.5783 61.5023 18.6669 61.3251 18.8441C61.4846 20.5982 61.5644 22.0069 61.5644 23.0701ZM51.6242 34.8442C48.7183 32.0448 47.2652 28.2527 47.2652 23.4687C47.2652 18.6669 48.6296 14.8839 51.3583 12.1198C54.1047 9.33787 57.7016 7.94695 62.1492 7.94695C66.5966 7.94695 70.1936 9.39105 72.9399 12.2792C75.6686 15.1674 77.033 18.9327 77.033 23.575C77.033 28.1996 75.713 31.8763 73.0728 34.605C70.4505 37.3337 66.88 38.6981 62.3618 38.6981C57.8433 38.6981 54.2641 37.4134 51.6242 34.8442ZM91.7576 27.8807L90.4817 28.4389C90.4817 29.6261 90.7119 30.893 91.1727 32.2396C91.5624 33.5153 92.1029 34.6494 92.794 35.6417C91.0399 37.4491 88.6035 38.3527 85.485 38.3527C83.6953 38.3527 82.145 37.8832 80.8338 36.944C79.3099 35.8809 78.5479 34.4722 78.5479 32.7181V1.70102C79.3984 1.20489 80.4173 0.797352 81.6045 0.478412C82.8094 0.15947 84.0232 0 85.2458 0C87.2835 0 88.9668 0.398677 90.2955 1.19603C91.8016 2.13513 92.5547 3.48177 92.5547 5.23594V8.05326C92.5547 10.4099 92.1383 12.7133 91.3055 14.9636C91.146 15.194 90.8627 15.5306 90.455 15.9736C90.0476 16.3989 89.7199 16.7887 89.4717 17.1431C89.2414 17.4974 89.1263 17.8075 89.1263 18.0733C89.1263 18.3214 89.3388 18.5517 89.764 18.7644C91.146 17.4709 92.227 16.0622 93.0065 14.5384C93.8039 13.0146 94.5303 10.9946 95.186 8.47851C95.4165 8.44308 95.6821 8.39877 95.9834 8.34562C96.2847 8.29246 96.7809 8.21272 97.4719 8.10641C98.1806 7.98239 98.6768 7.92036 98.9601 7.92036C101.689 7.92036 103.815 8.54938 105.339 9.80743C106.863 11.0478 107.625 12.7576 107.625 14.9371C107.625 17.1165 106.934 18.9858 105.552 20.5451C104.276 21.9449 102.619 22.9992 100.581 23.7079C102.212 24.6647 104.267 25.3469 106.748 25.7545C107.704 27.4909 108.183 29.3425 108.183 31.3094C108.183 33.2583 107.563 34.8886 106.322 36.1999C104.94 37.635 103.027 38.3527 100.581 38.3527C98.1539 38.3527 96.1516 37.4224 94.5747 35.5619C93.0155 33.6837 92.0763 31.1232 91.7576 27.8807Z" fill="white"/>
<path d="M124.121 26.504C124.333 26.504 124.564 26.4154 124.812 26.2382C124.635 25.6535 124.546 24.741 124.546 23.5006V10.3709C126.424 9.23691 128.683 8.66991 131.324 8.66991C132.812 8.66991 134.114 8.87367 135.231 9.28121C136.365 9.67103 137.233 10.1937 137.835 10.8493V24.6967C137.835 27.3368 138.473 29.0555 139.749 29.8529C139.767 29.9415 139.775 30.1098 139.775 30.3579V30.8363C139.775 33.4233 139.093 35.3812 137.729 36.7101C136.488 37.9504 134.779 38.5707 132.599 38.5707C131.235 38.5707 129.995 38.2604 128.878 37.6404C127.78 37.0201 126.956 36.1166 126.407 34.9294C125.804 34.9294 125.503 35.2217 125.503 35.8066C125.503 36.214 125.707 36.6214 126.114 37.0291C125.547 37.4896 124.865 37.8619 124.068 38.1453C123.27 38.4289 122.092 38.5707 120.533 38.5707C118.991 38.5707 117.485 38.2517 116.014 37.6137C114.189 36.8343 112.789 35.6381 111.815 34.0257C110.628 32.112 110.034 29.6846 110.034 26.7432V20.072C109.131 18.4951 108.679 16.7586 108.679 14.8627C108.679 13.8881 108.803 12.8782 109.051 11.8327C109.299 10.7873 109.698 9.85707 110.247 9.042H116.094C118.291 9.042 120.01 9.56471 121.25 10.6101C122.508 11.6378 123.137 13.206 123.137 15.3145V23.9259C123.137 25.6446 123.465 26.504 124.121 26.504ZM154.952 23.7398V27.3014C155.076 27.4254 155.279 27.4874 155.563 27.4874C155.847 27.4874 156.05 27.39 156.174 27.195C156.298 27.0001 156.36 26.6635 156.36 26.1851V23.4741C156.36 21.7731 156.289 20.6479 156.148 20.0986C156.006 19.5316 155.74 19.2481 155.35 19.2481C155.102 19.2481 154.89 19.3367 154.712 19.5139C154.872 21.2681 154.952 22.6767 154.952 23.7398ZM146.473 12.2846C146.473 12.8161 146.783 13.0819 147.404 13.0819C148.467 11.4163 149.716 10.1849 151.151 9.38752C152.586 8.57245 154.314 8.16492 156.334 8.16492C158.354 8.16492 160.197 8.48386 161.862 9.12174C164.148 10.0254 165.955 11.4783 167.284 13.4806C168.95 16.0144 169.782 19.3367 169.782 23.4475C169.782 28.0721 168.542 31.6691 166.061 34.2383C163.599 36.7899 160.179 38.0655 155.802 38.0655C153.357 38.0655 151.452 37.7645 150.088 37.1619C149.964 37.2327 149.902 37.3835 149.902 37.6137C149.902 38.1453 150.309 38.5263 151.125 38.7565C151.957 38.9871 153.383 39.1553 155.403 39.2617V46.3314C153.578 47.1465 151.576 47.5542 149.397 47.5542C146.828 47.5542 144.887 47.0844 143.576 46.1455C142.088 45.1355 141.344 43.585 141.344 41.4942V20.0986C140.298 18.628 139.775 16.8029 139.775 14.6235C139.775 13.7375 139.917 12.7718 140.201 11.7264C140.484 10.681 140.865 9.7862 141.344 9.042H145.118C146.659 9.042 147.838 9.25463 148.652 9.67989C147.2 10.7607 146.473 11.629 146.473 12.2846Z" fill="white"/>
<defs>
<linearGradient id="paint0_linear_141_212" x1="-14.5157" y1="65.6348" x2="97.4805" y2="14.5166" gradientUnits="userSpaceOnUse">
<stop offset="0.372069" stop-color="#1E4CC6"/>
<stop offset="0.945401" stop-color="#5282FF"/>
</linearGradient>
</defs>
</svg>
