<svg width="22" height="22" viewBox="0 0 22 22" fill="none" xmlns="http://www.w3.org/2000/svg">
<g clip-path="url(#clip0_111_3117)">
<path d="M15.4704 0.0936191C15.605 0.171634 15.7091 0.29298 15.7658 0.437833C15.8225 0.582686 15.8284 0.742483 15.7825 0.891119L13.3061 8.93762H17.8753C18.0095 8.93757 18.1409 8.97683 18.2531 9.05058C18.3653 9.12432 18.4535 9.22931 18.5067 9.35258C18.5599 9.47586 18.5759 9.61202 18.5526 9.74427C18.5294 9.87651 18.4679 9.99905 18.3758 10.0967L7.37577 21.7842C7.26934 21.8974 7.12771 21.9712 6.97396 21.9936C6.82022 22.016 6.66343 21.9856 6.52915 21.9075C6.39486 21.8293 6.29101 21.708 6.23451 21.5633C6.17801 21.4185 6.1722 21.2589 6.21802 21.1105L8.6944 13.0626H4.12527C3.991 13.0627 3.85965 13.0234 3.74743 12.9497C3.63522 12.8759 3.54706 12.7709 3.49383 12.6477C3.4406 12.5244 3.42463 12.3882 3.4479 12.256C3.47117 12.1237 3.53266 12.0012 3.62477 11.9035L14.6248 0.215994C14.7311 0.102968 14.8725 0.0292259 15.026 0.00675837C15.1795 -0.0157092 15.3362 0.0144189 15.4704 0.0922441V0.0936191Z" fill="white"/>
</g>
<defs>
<clipPath id="clip0_111_3117">
<rect width="22" height="22" fill="white"/>
</clipPath>
</defs>
</svg>
