<svg width="677" height="190" viewBox="0 0 677 190" fill="none" xmlns="http://www.w3.org/2000/svg">
<path d="M54.052 23.15V97.8032C54.052 108.352 56.6006 115.219 61.6979 118.405C61.7687 118.758 61.804 119.432 61.804 120.422V122.334C61.804 132.458 59.22 140.139 54.052 145.377C48.9547 150.616 41.6982 153.236 32.2825 153.236C22.8668 153.236 15.3979 150.616 9.8759 145.377C3.29196 139.147 0 129.732 0 117.131V6.79631C7.43348 2.26544 15.9289 0 25.4862 0C35.1143 0 42.2646 2.05305 46.937 6.15917C51.6803 10.1944 54.052 15.8581 54.052 23.15ZM120.316 92.1751V110.758C120.812 111.254 121.626 111.502 122.759 111.502C123.892 111.502 124.705 111.113 125.201 110.334C125.697 109.556 125.945 108.211 125.945 106.299V91.1131C125.945 84.3168 125.661 79.8214 125.094 77.6267C124.529 75.3612 123.467 74.2286 121.909 74.2286C120.918 74.2286 120.068 74.5825 119.36 75.2904C119.998 82.2991 120.316 87.9273 120.316 92.1751ZM80.6001 139.218C68.9897 128.033 63.1846 112.882 63.1846 93.7679C63.1846 74.5825 68.6358 59.4677 79.5382 48.4238C90.5114 37.3089 104.883 31.7516 122.652 31.7516C140.421 31.7516 154.794 37.5214 165.767 49.0609C176.669 60.6005 182.12 75.6444 182.12 94.1927C182.12 112.67 176.845 127.36 166.297 138.262C155.82 149.165 141.555 154.616 123.502 154.616C105.449 154.616 91.1486 149.483 80.6001 139.218ZM243.499 92.1751V110.758C243.995 111.254 244.809 111.502 245.942 111.502C247.075 111.502 247.889 111.113 248.384 110.334C248.88 109.556 249.128 108.211 249.128 106.299V91.1131C249.128 84.3168 248.844 79.8214 248.278 77.6267C247.712 75.3612 246.65 74.2286 245.092 74.2286C244.101 74.2286 243.251 74.5825 242.543 75.2904C243.181 82.2991 243.499 87.9273 243.499 92.1751ZM203.784 139.218C192.174 128.033 186.368 112.882 186.368 93.7679C186.368 74.5825 191.819 59.4677 202.721 48.4238C213.694 37.3089 228.066 31.7516 245.836 31.7516C263.606 31.7516 277.977 37.5214 288.95 49.0609C299.852 60.6005 305.303 75.6444 305.303 94.1927C305.303 112.67 300.029 127.36 289.48 138.262C279.003 149.165 264.738 154.616 246.685 154.616C228.632 154.616 214.332 149.483 203.784 139.218ZM364.134 111.396L359.037 113.626C359.037 118.369 359.957 123.431 361.798 128.812C363.355 133.908 365.514 138.44 368.275 142.404C361.267 149.626 351.533 153.236 339.073 153.236C331.922 153.236 325.728 151.36 320.489 147.607C314.401 143.36 311.356 137.732 311.356 130.723V6.79631C314.754 4.81406 318.825 3.18577 323.569 1.91147C328.383 0.637153 333.232 0 338.117 0C346.259 0 352.984 1.59289 358.293 4.77867C364.311 8.5308 367.32 13.9112 367.32 20.9199V32.1763C367.32 41.592 365.656 50.7954 362.328 59.7864C361.691 60.7067 360.559 62.0518 358.93 63.8216C357.302 65.5208 355.993 67.0782 355.001 68.4941C354.081 69.91 353.621 71.1489 353.621 72.2109C353.621 73.2021 354.471 74.1223 356.169 74.9719C361.691 69.8039 366.01 64.1757 369.125 58.0873C372.311 51.999 375.213 43.9283 377.833 33.8754C378.754 33.7338 379.815 33.5568 381.019 33.3444C382.223 33.1321 384.205 32.8134 386.966 32.3887C389.797 31.8932 391.78 31.6454 392.912 31.6454C403.814 31.6454 412.31 34.1586 418.398 39.185C424.487 44.1407 427.531 50.9723 427.531 59.6802C427.531 68.388 424.77 75.8569 419.248 82.0868C414.151 87.6796 407.531 91.8919 399.389 94.7237C405.903 98.5466 414.115 101.272 424.027 102.901C427.849 109.838 429.761 117.236 429.761 125.095C429.761 132.882 427.283 139.395 422.327 144.635C416.805 150.368 409.16 153.236 399.389 153.236C389.691 153.236 381.691 149.519 375.39 142.086C369.161 134.581 365.408 124.351 364.134 111.396Z" fill="url(#paint0_linear_111_2317)"/>
<path d="M493.821 105.895C494.67 105.895 495.591 105.541 496.582 104.833C495.874 102.497 495.52 98.851 495.52 93.8954V41.4363C503.024 36.9054 512.051 34.64 522.599 34.64C528.546 34.64 533.749 35.4541 538.209 37.0824C542.741 38.6399 546.209 40.7283 548.616 43.3478V98.674C548.616 109.223 551.165 116.09 556.262 119.275C556.333 119.629 556.368 120.302 556.368 121.293V123.204C556.368 133.541 553.643 141.363 548.192 146.673C543.235 151.629 536.404 154.107 527.696 154.107C522.245 154.107 517.289 152.867 512.829 150.39C508.44 147.912 505.148 144.302 502.953 139.558C500.546 139.558 499.343 140.726 499.343 143.063C499.343 144.691 500.157 146.319 501.785 147.948C499.52 149.788 496.794 151.275 493.608 152.407C490.423 153.54 485.715 154.107 479.485 154.107C473.326 154.107 467.308 152.832 461.432 150.283C454.14 147.169 448.547 142.39 444.654 135.948C439.91 128.302 437.539 118.603 437.539 106.851V80.1966C433.928 73.8958 432.123 66.9579 432.123 59.3828C432.123 55.4891 432.619 51.4538 433.61 47.2769C434.601 43.1 436.194 39.3832 438.388 36.1267H461.751C470.529 36.1267 477.396 38.2151 482.352 42.392C487.379 46.4982 489.892 52.7635 489.892 61.1881V95.5944C489.892 102.462 491.201 105.895 493.821 105.895ZM617.004 94.8511V109.081C617.5 109.576 618.313 109.824 619.446 109.824C620.58 109.824 621.393 109.435 621.889 108.656C622.385 107.877 622.633 106.532 622.633 104.621V93.7892C622.633 86.9929 622.349 82.4973 621.783 80.3027C621.217 78.0373 620.154 76.9046 618.597 76.9046C617.605 76.9046 616.756 77.2585 616.048 77.9665C616.686 84.9752 617.004 90.6034 617.004 94.8511ZM583.129 49.0822C583.129 51.206 584.368 52.268 586.846 52.268C591.093 45.6132 596.085 40.6929 601.818 37.5072C607.553 34.2506 614.455 32.6223 622.526 32.6223C630.597 32.6223 637.96 33.8966 644.615 36.4452C653.747 40.0558 660.968 45.8609 666.277 53.8608C672.932 63.9845 676.259 77.2585 676.259 93.683C676.259 112.16 671.304 126.532 661.392 136.797C651.552 146.992 637.889 152.088 620.402 152.088C610.633 152.088 603.022 150.886 597.571 148.478C597.075 148.761 596.827 149.363 596.827 150.283C596.827 152.407 598.456 153.929 601.713 154.849C605.039 155.77 610.739 156.442 618.809 156.868V185.114C611.517 188.371 603.518 190 594.81 190C584.545 190 576.793 188.123 571.554 184.372C565.607 180.336 562.634 174.141 562.634 165.788V80.3027C558.457 74.4268 556.368 67.1348 556.368 58.4271C556.368 54.8873 556.934 51.029 558.068 46.8521C559.2 42.6752 560.722 39.1001 562.634 36.1267H577.713C583.872 36.1267 588.58 36.9762 591.836 38.6753C586.031 42.9938 583.129 46.4627 583.129 49.0822Z" fill="url(#paint1_linear_111_2317)"/>
<defs>
<linearGradient id="paint0_linear_111_2317" x1="-60.4745" y1="262.24" x2="387" y2="58" gradientUnits="userSpaceOnUse">
<stop offset="0.372069" stop-color="#1E4CC6"/>
<stop offset="0.945401" stop-color="#5282FF"/>
</linearGradient>
<linearGradient id="paint1_linear_111_2317" x1="457.5" y1="234.5" x2="695.5" y2="111" gradientUnits="userSpaceOnUse">
<stop stop-color="#31B998"/>
<stop offset="1" stop-color="#55E6C2"/>
</linearGradient>
</defs>
</svg>
